PathFileType	4	(X/Y/Z)	9_coords_data.trc
DataRate	CameraRate	NumFrames	NumMarkers	Units	OrigDataRate	OrigDataStartFrame	OrigNumFrames
30.0	30.0	6	21	m	30.0	20	48
Frame#	Time	THUMB_TIP	THUMB_IP	THUMB_MCP	THUMB_CMC	INDEX_TIP	INDEX_DIP	INDEX_PIP	INDEX_MCP	MIDDLE_TIP	MIDDLE_DIP	MIDDLE_PIP	MIDDLE_MCP	RING_TIP	RING_DIP	RING_PIP	RING_MCP	PINKY_TIP	PINKY_DIP	PINKY_PIP	PINKY_MCP	WRIST
X1	Y1	Z1	X2	Y2	Z2	X3	Y3	Z3	X4	Y4	Z4	X5	Y5	Z5	X6	Y6	Z6	X7	Y7	Z7	X8	Y8	Z8	X9	Y9	Z9	X10	Y10	Z10	X11	Y11	Z11	X12	Y12	Z12	X13	Y13	Z13	X14	Y14	Z14	X15	Y15	Z15	X16	Y16	Z16	X17	Y17	Z17	X18	Y18	Z18	X19	Y19	Z19	X20	Y20	Z20	X21	Y21	Z21
18	0.6333333333333304	0.4875969628352926	-0.027378489939460016	-0.1700653188115191	0.49000460236474086	-0.026142005072020025	-0.14724702840516235	0.4840389142759123	-0.02953222223226093	-0.11688690664596624	0.48212909382974667	-0.025352547872985798	-0.07251605012827189	0.5482651978624158	-0.00825502427821967	-0.10170769604131202	0.5476427593795425	0.005158097055379729	-0.11386091563223444	0.5383744251505689	0.02343708440420178	-0.12842066958350862	0.49785516747744346	0.014142988131239709	-0.11917698925109843	0.5346874946277501	-0.017169546464135932	-0.08135393650915401	0.5437939865707602	-0.002957894916293058	-0.08791905377959097	0.5449967510093257	0.02238745690241528	-0.10225697723074756	0.5007546282548786	0.02861039360594364	-0.10201707315759634	0.525545679571384	-0.007435816407428852	-0.07136097700531452	0.5376852791083895	0.00569184696863545	-0.07366197186969003	0.5425691737587518	0.02907404739984565	-0.08070471672087354	0.503354699491549	0.03883514277206579	-0.08199578568933341	0.5255400262604539	-0.003517000555998795	-0.06096292177555307	0.5372795932414758	0.008562953824285513	-0.057920345684746244	0.5374063348039695	0.02954218708789058	-0.05710319989139967	0.5025182615947239	0.03866347836033002	-0.05781583182280037	0.4622830810018609	-0.023011742144276925	-0.051989820119430985
19	0.6666666666666637	0.49512200269700013	-0.026777608889003934	-0.16924635909056185	0.4946043909072906	-0.026402479621748798	-0.14627700219777962	0.4861341782732494	-0.03001633850248664	-0.11654460367488484	0.4823003846535433	-0.025500173990403607	-0.0723315254673984	0.5587718309510492	-0.0025693003103646195	-0.10570649317396397	0.5526435495523572	0.0100213182276232	-0.11719215780119918	0.5380832112058407	0.026036439249201626	-0.12997974079796426	0.49879554396881876	0.01407522396460037	-0.11870833334421393	0.547530481784677	-0.013832687388849019	-0.08247806925472823	0.5516825484719412	0.002064839694703946	-0.09009574441531432	0.5457241636782464	0.027038437215210376	-0.10388801136219539	0.5011370051098752	0.02873239327442989	-0.10159373050136733	0.5357398202591689	-0.006325804253356049	-0.07116393014367473	0.5440708979026239	0.00938519764766621	-0.07412324840381557	0.543540992452794	0.03322080803711369	-0.08131788922714389	0.5035163850979796	0.03893870755410478	-0.08155719072429346	0.5330949881263991	-0.0014991227650433814	-0.06050325020219027	0.5419754547640803	0.012793362906332484	-0.05736284168886774	0.5381452126574723	0.03341921983200247	-0.056517093211744696	0.5024789611955229	0.038747956621010826	-0.05715468390056555	0.46228308100186083	-0.023011742144276925	-0.051989820119430985
20	0.6999999999999968	0.5029040180891069	-0.02633804965830011	-0.16763614768867596	0.49928627121537766	-0.026878247288287915	-0.14495090812462963	0.4882772424887765	-0.030601341823661143	-0.11607600806285368	0.48249211507418654	-0.02561745111620195	-0.07212622837952576	0.5683459257934758	0.005751656759010015	-0.11198055447950961	0.5569795386203861	0.016096739242825064	-0.12156097780181074	0.5375720115390681	0.02858865014142986	-0.13152641244808827	0.49987620048370024	0.013941227232023734	-0.11818044208280554	0.562690584242941	-0.0066869059105348905	-0.08563677112589763	0.5598967733858737	0.009353800459615313	-0.0935671153833405	0.5459931328225289	0.031953914699970665	-0.10562253596531113	0.5016543987705697	0.028781110938808085	-0.101132780965002	0.5488392232852013	-0.0027777371644089888	-0.07177958865562606	0.5512038534774332	0.014769922065871466	-0.07516901037502577	0.5442346290888291	0.037674661007961685	-0.08202341220275555	0.5038331382777167	0.0389401012527707	-0.0811074235421172	0.5422245318979622	0.0022120003384294984	-0.05994736967572467	0.5469446047414863	0.018361228282724906	-0.05679723489209798	0.5386849127505138	0.03764173213013433	-0.055874370544375274	0.5026378789269925	0.038696061942372295	-0.05649339572393908	0.46228308100186094	-0.023011742144276925	-0.051989820119430985
21	0.7333333333333302	0.5105086626685507	-0.026110249557305343	-0.16525376072663145	0.5038621950080453	-0.02755861563606543	-0.14330548736994697	0.49040808179242024	-0.031307512449233355	-0.1154890783589807	0.4826920378590007	-0.025699400364331826	-0.07191268859501887	0.5747019710234185	0.01538201178098575	-0.11968496930347428	0.5595977594493005	0.022647341373687624	-0.12654629414884422	0.5367568540607212	0.030881341106614668	-0.13306581272218454	0.5009455310346238	0.013712546729368169	-0.11768993106446046	0.5763309345591987	0.005057950165500147	-0.09140616568356252	0.566475947289395	0.018616577800113054	-0.09826494418836318	0.5456176141101535	0.03678759625741246	-0.1074384699668327	0.5021819440426221	0.02875112810944236	-0.1007373009276864	0.5627097736519397	0.004955120180542116	-0.07377531937750337	0.5578045549141026	0.021998631360582888	-0.07700913381092367	0.5444422697138837	0.04217596831191872	-0.08288317728882444	0.5042036757518673	0.03886241820167535	-0.08073916804749925	0.5518877327788998	0.008345422132592373	-0.059438148376879774	0.5513397321340636	0.025170039793343424	-0.056334612351182645	0.538838447759486	0.042007536434492176	-0.05532040584102249	0.5029430297977449	0.038535407347775275	-0.05590925213428688	0.46228308100186083	-0.023011742144276925	-0.051989820119430985
22	0.7666666666666633	0.5174187196972946	-0.026062360552660424	-0.1623268262249309	0.5080495757222845	-0.02835632212081396	-0.14147120632286692	0.4923998080907389	-0.032066701694641764	-0.1148227944284077	0.4828908650047762	-0.02576097519922027	-0.07169846469735153	0.5773478530820858	0.02443920201525085	-0.127290214121061	0.5602570228179496	0.028737441488025817	-0.13146497858353867	0.5356467053427367	0.03283311035659087	-0.13455813284550167	0.5019068983824828	0.013429445061720946	-0.11727347799186172	0.5846042450126124	0.0187360039404173	-0.0985528059493801	0.5700865981193921	0.02839410664682629	-0.1034475971396378	0.5445995444509923	0.041266622158577015	-0.10928865780563435	0.5026589257442713	0.02867382730322987	-0.10042559167541787	0.5734271218942834	0.016032181023317382	-0.0769732445048128	0.5625907514468618	0.03022547084272098	-0.07944783530506005	0.5441582522668711	0.046377500689061546	-0.0838676639015743	0.5046052429813552	0.0387187186053054	-0.08045836082712687	0.5603255222569086	0.016574996258334473	-0.05892971771172839	0.5544873189896375	0.03239513608267064	-0.05599057522649942	0.5386131150254869	0.04609109737873407	-0.05487598486170975	0.5034117309898876	0.03825234206004069	-0.05542364171769143	0.46228308100186094	-0.023011742144276925	-0.051989820119430985
23	0.7999999999999965	0.5232808037154544	-0.026157104931260222	-0.1592237809722321	0.511654720347823	-0.02919988699661502	-0.1396386932054734	0.49417010947815665	-0.03281049001814562	-0.11414218504146667	0.48306222238543695	-0.025778712892310707	-0.07151521054423116	0.5773883148745856	0.03190178765108065	-0.13376514453965838	0.5594816651296248	0.03377641754318694	-0.13572413858735755	0.5343500928460231	0.03439758306723695	-0.13589165260417235	0.5026773333013477	0.01312896897933613	-0.11696763475369643	0.5878410026637396	0.031097024382103267	-0.10522922615936547	0.571031726143102	0.03713918188272436	-0.10821930234408572	0.5431278454189454	0.045079415801338785	-0.11100061064230304	0.5030378704108225	0.028557356521951016	-0.10023198110942033	0.5795738951493618	0.027413231452417253	-0.08052304968255419	0.5651760528773488	0.03815372221346225	-0.08205406115284142	0.5434680055510152	0.05001851462426887	-0.08491192072359033	0.5049769933838248	0.03852573201061926	-0.08032075919946635	0.5661910035847437	0.025499787327991186	-0.05857436478733691	0.5562746171418282	0.03918937366642339	-0.05587983221240489	0.5380762241537009	0.049586129383491606	-0.05463967810533377	0.5039583370966371	0.037897844521196045	-0.05512674148855312	0.46228308100186083	-0.023011742144276925	-0.051989820119430985
